<svg width="122" height="130" viewBox="0 0 122 130" fill="none" xmlns="http://www.w3.org/2000/svg">
<path d="M51 72H66L64.2 92.88L66 130H48L51 111.15V72Z" fill="#7B5F3E"/>
<path d="M47.8351 7.32584C25.0789 -4.2504 11.9866 8.4991 11.9866 16.712C-0.872058 24.1427 -2.56095 37.0946 3.02417 47.217C-3.21039 60.0447 11.2071 72.6378 17.8313 72.6378C31.0799 92.1922 48.3547 84.8919 60.6939 81.2417C75.6568 95.3209 102.388 80.4596 103.556 69.9001C120.39 67.0843 119.403 51.5189 116.805 44.0882C133.015 26.2546 107.064 7.32584 96.5426 12.41C78.7741 -7.30091 56.6674 0.807683 47.8351 7.32584Z" fill="#648C4C"/>
</svg>
