<svg xmlns="http://www.w3.org/2000/svg" width="122" height="130" fill="none"><path fill="#7B5F3E" d="M51 72h15l-1.8 20.88L66 130H48l3-18.85V72Z"/><path fill="#648C4C" d="M47.835 7.326C25.08-4.25 11.987 8.499 11.987 16.712c-12.86 7.43-14.548 20.383-8.963 30.505-6.234 12.828 8.183 25.42 14.807 25.42 13.249 19.555 30.524 12.255 42.863 8.605 14.963 14.079 41.694-.782 42.862-11.342 16.834-2.816 15.847-18.381 13.249-25.812 16.21-17.833-9.741-36.762-20.262-31.678C78.774-7.3 56.667.808 47.835 7.326Z"/></svg>