<svg xmlns="http://www.w3.org/2000/svg" width="126" height="158" fill="none"><path fill="#7B5F3E" d="M54.833 83H74l-2.3 27 2.3 48H51l3.833-24.375V83Z"/><path fill="#648C4C" d="M73.157 6.796c-18.176-13.172-44.062-4.41-46.472 2.94-21.756 0-27.883 19.406-22.031 31.755-11.016 9.173 0 24.992 7.573 24.992C8.44 80.007 30.587 83.34 41.831 82.948c13.22 14.583 32.13 6.076 39.932 0 22.582 5.88 28.227-11.271 28.227-20.582 20.104-1.646 17.098-18.523 13.081-26.756 6.885-9.643-6.196-22.345-13.081-22.345C101.178-3.906 75.911.915 73.157 6.796Z"/></svg>